<svg width="128" height="128" xmlns="http://www.w3.org/2000/svg" xmlns:xlink="http://www.w3.org/1999/xlink" overflow="hidden"><defs><clipPath id="clip0"><rect x="737" y="189" width="128" height="128"/></clipPath></defs><g clip-path="url(#clip0)" transform="translate(-737 -189)"><path d="M851 289.8 834.333 273.133C832.067 270.867 829 270.067 826.067 270.6L820.2 264.733C825.4 258.067 828.467 249.533 828.467 240.467 828.467 218.467 810.467 200.467 788.467 200.467 766.467 200.467 748.467 218.467 748.467 240.467 748.467 262.467 766.467 280.467 788.467 280.467 797.533 280.467 805.933 277.4 812.733 272.2L818.6 278.067C818.067 281 818.867 284.067 821.133 286.333L837.8 303C839.667 304.867 842.067 305.8 844.467 305.8 846.867 305.8 849.267 304.867 851.133 303 854.6 299.267 854.6 293.4 851 289.8ZM788.333 272.333C770.733 272.333 756.333 257.933 756.333 240.333 756.333 222.733 770.733 208.333 788.333 208.333 805.933 208.333 820.333 222.733 820.333 240.333 820.333 257.933 805.933 272.333 788.333 272.333Z" fill="#457DD9"/></g></svg>